<svg width="200" height="117" viewBox="0 0 200 117" fill="none" xmlns="http://www.w3.org/2000/svg">
<path d="M0.101653 88.5712L0 79.3245H5.58127L5.44443 86.673L10.0717 86.7258L14.699 86.673L14.6306 79.3245H20.1786L20.0418 88.5712L20.1786 97.8433H14.6306L14.699 90.2798L10.0717 90.227L5.44443 90.2798L5.58127 97.8433H0L0.101653 88.5712Z" fill="#1E530A"/>
<path d="M24.5869 97.1494C23.5547 96.4183 23.0386 95.4565 23.0386 94.264C23.0386 93.0715 23.4354 92.139 24.2291 91.4724C25.0228 90.8038 26.1625 90.3327 27.6483 90.0551C29.134 89.7794 31.0459 89.6406 33.382 89.6406H34.5041V89.2125C34.5041 88.2507 34.2422 87.5156 33.7222 87.0074C33.2002 86.4991 32.3616 86.2449 31.2042 86.2449C30.3871 86.2449 29.7127 86.3916 29.179 86.6868C28.6453 86.98 28.2719 87.3456 28.0568 87.7815C27.8418 88.2174 27.7343 88.6866 27.7343 89.1851L23.5136 88.411C23.627 87.3964 24.0121 86.4971 24.6709 85.7112C25.3278 84.9273 26.2466 84.3174 27.4274 83.8815C28.6062 83.4455 29.9805 83.2266 31.5444 83.2266C34.1992 83.2266 36.1619 83.7348 37.4326 84.7494C38.7033 85.764 39.3386 87.1989 39.3386 89.0522V94.1037C39.3386 94.5494 39.4246 94.8661 39.5947 95.0518C39.7648 95.2395 40.0659 95.3314 40.4959 95.3314C40.6543 95.3314 40.8244 95.3138 41.0062 95.2786C41.188 95.2434 41.3678 95.1984 41.5516 95.1457L41.62 95.1183L42.1987 97.7379C41.7666 97.8806 41.2975 97.9861 40.7872 98.0585C40.277 98.1289 39.7159 98.166 39.1021 98.166C37.9897 98.166 37.1276 97.9646 36.5157 97.5639C35.9039 97.1631 35.5402 96.5258 35.4269 95.6539C35.4034 95.5836 35.3936 95.521 35.3936 95.4663V95.3333C35.3936 95.2805 35.3995 95.2532 35.4112 95.2532C35.4229 95.2532 35.4288 95.2356 35.4288 95.2004H35.3604C34.815 96.1446 33.988 96.8894 32.8757 97.4309C31.7633 97.9744 30.4477 98.2461 28.9287 98.2461C27.0676 98.2461 25.621 97.8806 24.5888 97.1514L24.5869 97.1494ZM32.3459 94.9443C32.993 94.6511 33.5149 94.2366 33.9118 93.701C34.3086 93.1673 34.5081 92.5613 34.5081 91.8829V91.6952H33.6909C32.3068 91.6952 31.1945 91.7539 30.3558 91.8692C29.5172 91.9846 28.8974 92.1937 28.5006 92.4967C28.1038 92.7998 27.9044 93.2279 27.9044 93.7792C27.9044 94.2601 28.1194 94.6472 28.5514 94.9423C28.9815 95.2356 29.5719 95.3842 30.3206 95.3842C31.0244 95.3842 31.6988 95.2375 32.3459 94.9423V94.9443Z" fill="#1E530A"/>
<path d="M45.874 91.3513V86.6204H40.7345V83.6001H55.9124V86.6204H50.8766V91.3513L50.9098 97.8455H45.8388L45.872 91.3513H45.874Z" fill="#1E530A"/>
<path d="M59.3335 102.32C58.6649 102.24 58.0237 102.129 57.4099 101.986L58.2954 99.0459C58.5457 99.1162 58.88 99.171 59.3003 99.2062C59.7206 99.2413 60.0666 99.2589 60.3383 99.2589C60.8838 99.2589 61.3471 99.1827 61.7341 99.0322C62.1192 98.8797 62.4496 98.6392 62.7214 98.3108C62.9931 97.9804 63.2766 97.5308 63.5718 96.9619L63.2316 98.4046L56.1196 83.6001H61.4292L65.513 93.1127H65.5814L69.3251 83.6001H74.4645L68.373 97.3353C67.8276 98.5474 67.2333 99.517 66.5862 100.248C65.9391 100.979 65.1787 101.527 64.3068 101.892C63.433 102.258 62.3832 102.44 61.1594 102.44C60.614 102.44 60.0079 102.399 59.3394 102.318L59.3335 102.32Z" fill="#1E530A"/>
<path d="M76.3646 92.1253L76.2629 83.5999H81.4689L81.4356 85.5236H81.5041C81.9576 84.8648 82.6672 84.3174 83.631 83.8795C84.5948 83.4436 85.6895 83.2246 86.9153 83.2246C88.3893 83.2246 89.6658 83.5061 90.743 84.0672C91.8201 84.6282 92.649 85.461 93.2277 86.5655C93.8063 87.6701 94.0956 89.0502 94.0956 90.708C94.0956 92.3658 93.8122 93.7283 93.2453 94.8505C92.6783 95.9726 91.8553 96.8191 90.7782 97.3899C89.701 97.9607 88.4127 98.2442 86.9153 98.2442C85.6895 98.2442 84.6006 98.0213 83.6486 97.5756C82.6966 97.1299 81.9576 96.5688 81.4356 95.8924H81.3672L81.4689 102.119H76.2629L76.3646 92.1253ZM87.969 93.8632C88.6043 93.1321 88.921 92.0823 88.921 90.71C88.921 89.3376 88.5984 88.323 87.9514 87.6095C87.3043 86.8979 86.3796 86.5401 85.1773 86.5401C84.4501 86.5401 83.805 86.6926 83.2381 86.9937C82.6711 87.2967 82.2215 87.7639 81.8931 88.3973C81.5647 89.0307 81.4005 89.8087 81.4005 90.7354C81.4005 91.75 81.5823 92.571 81.9459 93.1947C82.3095 93.8183 82.7689 94.2679 83.3241 94.5435C83.8793 94.8192 84.499 94.958 85.1793 94.958C86.405 94.958 87.3336 94.5924 87.969 93.8632Z" fill="#1E530A"/>
<path d="M95.3528 97.8981L96.2384 94.5571C96.7369 94.6275 97.1454 94.6647 97.4641 94.6647C97.8942 94.6647 98.2519 94.5571 98.5354 94.344C98.8188 94.131 99.0397 93.6852 99.1981 93.0088C99.4483 91.9043 99.6458 90.2602 99.7943 88.0786C99.941 85.8969 100.05 82.9782 100.117 79.3264H118.188L118.018 88.5731L118.188 97.8453H112.607L112.708 88.5731L112.64 82.9078L108.998 82.8277L105.526 82.9078C105.458 85.4199 105.338 87.5937 105.168 89.4274C104.998 91.2631 104.799 92.7234 104.572 93.8103C104.164 95.5737 103.427 96.7545 102.361 97.3507C101.294 97.947 100.058 98.246 98.6527 98.246C97.5638 98.246 96.4632 98.1307 95.3508 97.8981H95.3528Z" fill="#1E530A"/>
<path d="M122 90.7082L121.898 83.6001H126.764L126.696 88.892L126.729 92.3386H126.797L129.622 88.7317L133.673 83.6001H138.709L138.64 90.7082L138.709 97.8436H133.843L133.911 92.5262V89.1325H133.81L130.713 92.9798L126.901 97.8436H121.865L122.002 90.7082H122Z" fill="#1E530A"/>
<path d="M142.349 90.7082L142.212 83.6001H147.351L147.25 90.7082L147.351 97.8436H142.212L142.349 90.7082ZM146.806 89.0504L150.788 89.0778L154.735 89.0504V92.231L150.788 92.1783L146.806 92.231V89.0504ZM154.362 90.7082L154.225 83.6001H159.364L159.227 90.7082L159.364 97.8436H154.225L154.362 90.7082Z" fill="#1E530A"/>
<path d="M163.006 90.7082L162.905 83.6001H167.771L167.702 88.892L167.735 92.3386H167.804L170.629 88.7317L174.677 83.6001H179.713L179.645 90.7082L179.713 97.8436H174.847L174.916 92.5262V89.1325H174.814L171.718 92.9798L167.905 97.8436H162.87L163.006 90.7082Z" fill="#1E530A"/>
<path d="M182.743 96.3207C182.833 96.0177 182.913 95.7147 182.982 95.4117C183.05 95.1087 183.128 94.8408 183.22 94.6102C183.402 93.8614 183.764 93.2828 184.309 92.8722C184.852 92.4617 185.658 92.1411 186.725 91.9104L186.624 92.4441C185.421 92.1939 184.508 91.713 183.885 91.0014C183.261 90.2898 182.948 89.4433 182.948 88.462C182.948 86.8042 183.623 85.5804 184.974 84.7867C186.323 83.995 188.303 83.5981 190.913 83.5981H199.012L198.875 90.7062L199.012 97.8416H193.839L193.908 93.3786H191.56C190.766 93.3786 190.068 93.5389 189.466 93.8595C188.864 94.1801 188.485 94.6708 188.326 95.3296C188.326 95.3824 188.32 95.4195 188.309 95.4371C188.297 95.4547 188.279 95.4899 188.258 95.5446C188.189 95.9551 188.094 96.395 187.969 96.8681C187.843 97.3412 187.736 97.6657 187.646 97.8436H182.303C182.417 97.5582 182.563 97.0519 182.745 96.3207H182.743ZM193.906 90.6554L193.872 86.7534H190.946C189.902 86.7534 189.136 86.9098 188.649 87.2206C188.16 87.5334 187.918 88.0182 187.918 88.677C187.918 89.3358 188.178 89.8539 188.7 90.1745C189.222 90.4951 190.027 90.6554 191.116 90.6554H193.906Z" fill="#1E530A"/>
<path d="M23.3905 110.059H25.3728C26.2916 110.059 26.9563 110.194 27.3648 110.46C27.7734 110.728 27.9767 111.152 27.9767 111.729C27.9767 112.12 27.877 112.442 27.6757 112.7C27.4763 112.96 27.185 113.123 26.8096 113.191V113.236C27.2788 113.324 27.6229 113.498 27.8418 113.758C28.0608 114.018 28.1722 114.37 28.1722 114.816C28.1722 115.414 27.963 115.883 27.5447 116.223C27.1263 116.563 26.5457 116.731 25.7989 116.731H23.3885V110.059H23.3905ZM24.4813 112.818H25.5311C25.9886 112.818 26.3209 112.743 26.5301 112.601C26.7393 112.456 26.8448 112.21 26.8448 111.862C26.8448 111.551 26.7314 111.322 26.5047 111.181C26.2779 111.041 25.9182 110.972 25.4236 110.972H24.4774V112.818H24.4813ZM24.4813 113.703V115.815H25.6426C26.0981 115.815 26.4421 115.727 26.6748 115.553C26.9074 115.377 27.0227 115.103 27.0227 114.726C27.0227 114.378 26.9054 114.12 26.6669 113.952C26.4304 113.785 26.0707 113.703 25.5859 113.703H24.4813Z" fill="#1E530A"/>
<path d="M34.2716 110.898C33.6441 110.898 33.1514 111.123 32.7917 111.565C32.432 112.008 32.2522 112.622 32.2522 113.404C32.2522 114.186 32.4261 114.841 32.7702 115.261C33.1162 115.682 33.6167 115.891 34.2716 115.891C34.5531 115.891 34.8287 115.862 35.0926 115.805C35.3566 115.748 35.6341 115.678 35.9196 115.588V116.524C35.3956 116.722 34.8033 116.819 34.1386 116.819C33.1612 116.819 32.4125 116.526 31.8885 115.934C31.3646 115.342 31.1027 114.495 31.1027 113.393C31.1027 112.699 31.2297 112.093 31.4839 111.573C31.738 111.053 32.1055 110.656 32.5864 110.378C33.0654 110.1 33.6323 109.962 34.2794 109.962C34.9597 109.962 35.5911 110.104 36.1678 110.39L35.7749 111.299C35.5501 111.191 35.3135 111.099 35.0614 111.019C34.8111 110.939 34.5472 110.896 34.2696 110.896L34.2716 110.898Z" fill="#1E530A"/>
<path d="M43.0003 116.733H39.2253V110.061H43.0003V110.984H40.3162V112.8H42.8321V113.713H40.3162V115.809H43.0003V116.735V116.733Z" fill="#1E530A"/>
<path d="M56.538 113.388C56.538 114.473 56.2662 115.318 55.7247 115.92C55.1812 116.522 54.411 116.823 53.4179 116.823C52.4248 116.823 51.637 116.526 51.0955 115.926C50.5559 115.33 50.2842 114.479 50.2842 113.377C50.2842 112.274 50.5579 111.43 51.0994 110.837C51.6429 110.249 52.417 109.954 53.4238 109.954C54.4306 109.954 55.1832 110.253 55.7247 110.851C56.2682 111.451 56.538 112.296 56.538 113.386V113.388ZM51.4454 113.388C51.4454 114.208 51.6096 114.831 51.942 115.257C52.2723 115.683 52.765 115.895 53.416 115.895C54.0669 115.895 54.5537 115.685 54.8841 115.265C55.2145 114.845 55.3787 114.219 55.3787 113.39C55.3787 112.561 55.2164 111.952 54.888 111.527C54.5615 111.103 54.0728 110.894 53.4238 110.894C52.7747 110.894 52.2743 111.103 51.942 111.527C51.6096 111.952 51.4435 112.571 51.4435 113.39L51.4454 113.388Z" fill="#1E530A"/>
<path d="M62.1446 116.733H61.0538V110.998H59.0911V110.061H64.1074V110.998H62.1446V116.733Z" fill="#1E530A"/>
<path d="M69.3055 116.733H68.2147V110.998H66.252V110.061H71.2683V110.998H69.3055V116.733Z" fill="#1E530A"/>
<path d="M77.9346 116.733H74.1597V110.061H77.9346V110.984H75.2505V112.8H77.7665V113.713H75.2505V115.809H77.9346V116.735V116.733Z" fill="#1E530A"/>
<path d="M86.5107 116.733H85.4159V113.725H82.3369V116.733H81.2461V110.061H82.3369V112.79H85.4159V110.061H86.5107V116.733Z" fill="#1E530A"/>
<path d="M95.2588 116.733H93.9764L91.2278 113.351V116.733H90.137V110.061H91.2278V113.291L93.9314 110.061H95.1278L92.4359 113.285L95.2608 116.733H95.2588Z" fill="#1E530A"/>
<path d="M98.0095 110.059H99.0085V113.527C99.0085 113.889 99.0007 114.257 98.9831 114.626C98.9635 114.994 98.9498 115.246 98.942 115.375H98.9831L102.392 110.057H103.665V116.729H102.662V113.287C102.662 112.761 102.69 112.122 102.748 111.371H102.713L99.288 116.729H98.0095V110.057V110.059Z" fill="#1E530A"/>
<path d="M111.583 110.059H113.565C114.484 110.059 115.148 110.194 115.557 110.46C115.965 110.728 116.169 111.152 116.169 111.729C116.169 112.12 116.069 112.442 115.868 112.7C115.668 112.96 115.377 113.123 115.002 113.191V113.236C115.471 113.324 115.815 113.498 116.034 113.758C116.255 114.018 116.364 114.37 116.364 114.816C116.364 115.414 116.155 115.883 115.737 116.223C115.318 116.563 114.738 116.731 113.991 116.731H111.581V110.059H111.583ZM112.673 112.818H113.723C114.181 112.818 114.513 112.743 114.722 112.601C114.931 112.456 115.037 112.21 115.037 111.862C115.037 111.551 114.923 111.322 114.697 111.181C114.47 111.041 114.11 110.972 113.616 110.972H112.669V112.818H112.673ZM112.673 113.703V115.815H113.835C114.29 115.815 114.634 115.727 114.867 115.553C115.099 115.377 115.215 115.103 115.215 114.726C115.215 114.378 115.097 114.12 114.859 113.952C114.622 113.785 114.263 113.703 113.778 113.703H112.673Z" fill="#1E530A"/>
<path d="M124.745 116.733H123.462L120.714 113.351V116.733H119.623V110.061H120.714V113.291L123.418 110.061H124.614L121.922 113.285L124.747 116.733H124.745Z" fill="#1E530A"/>
<path d="M132.572 110.059L130.467 114.806C130.209 115.386 129.972 115.807 129.755 116.069C129.538 116.329 129.288 116.52 129.005 116.642C128.719 116.765 128.375 116.823 127.97 116.823C127.619 116.823 127.29 116.778 126.989 116.686V115.705C127.286 115.824 127.599 115.883 127.924 115.883C128.201 115.883 128.434 115.815 128.619 115.68C128.807 115.543 128.977 115.298 129.13 114.947L126.668 110.057H127.847L129.478 113.404C129.622 113.719 129.712 113.932 129.747 114.038H129.792C129.81 113.959 129.855 113.832 129.929 113.66L131.431 110.059H132.57H132.572Z" fill="#1E530A"/>
<path d="M138.161 110.898C137.534 110.898 137.041 111.123 136.681 111.565C136.322 112.008 136.142 112.622 136.142 113.404C136.142 114.186 136.316 114.841 136.66 115.261C137.006 115.682 137.506 115.891 138.161 115.891C138.443 115.891 138.718 115.862 138.982 115.805C139.246 115.748 139.524 115.678 139.809 115.588V116.524C139.285 116.722 138.693 116.819 138.028 116.819C137.051 116.819 136.302 116.526 135.778 115.934C135.254 115.342 134.992 114.495 134.992 113.393C134.992 112.699 135.119 112.093 135.374 111.573C135.628 111.053 135.995 110.656 136.476 110.378C136.955 110.1 137.522 109.962 138.169 109.962C138.849 109.962 139.481 110.104 140.058 110.39L139.665 111.299C139.44 111.191 139.203 111.099 138.951 111.019C138.701 110.939 138.437 110.896 138.159 110.896L138.161 110.898Z" fill="#1E530A"/>
<path d="M148.38 116.733H147.285V113.725H144.206V116.733H143.115V110.061H144.206V112.79H147.285V110.061H148.38V116.733Z" fill="#1E530A"/>
<path d="M157.933 113.388C157.933 114.473 157.662 115.318 157.12 115.92C156.577 116.522 155.807 116.823 154.813 116.823C153.82 116.823 153.032 116.526 152.491 115.926C151.951 115.33 151.68 114.479 151.68 113.377C151.68 112.274 151.953 111.43 152.495 110.837C153.038 110.249 153.812 109.954 154.819 109.954C155.826 109.954 156.579 110.253 157.12 110.851C157.664 111.451 157.933 112.296 157.933 113.386V113.388ZM152.841 113.388C152.841 114.208 153.005 114.831 153.337 115.257C153.668 115.683 154.16 115.895 154.811 115.895C155.462 115.895 155.949 115.685 156.28 115.265C156.61 114.845 156.774 114.219 156.774 113.39C156.774 112.561 156.612 111.952 156.283 111.527C155.957 111.103 155.468 110.894 154.819 110.894C154.17 110.894 153.67 111.103 153.337 111.527C153.005 111.952 152.839 112.571 152.839 113.39L152.841 113.388Z" fill="#1E530A"/>
<path d="M165.198 110.059V110.996H162.326V116.731H161.235V110.059H165.198Z" fill="#1E530A"/>
<path d="M174.079 113.388C174.079 114.473 173.807 115.318 173.266 115.92C172.722 116.522 171.952 116.823 170.959 116.823C169.966 116.823 169.178 116.526 168.636 115.926C168.097 115.33 167.825 114.479 167.825 113.377C167.825 112.274 168.099 111.43 168.64 110.837C169.184 110.249 169.958 109.954 170.965 109.954C171.972 109.954 172.724 110.253 173.266 110.851C173.809 111.451 174.079 112.296 174.079 113.386V113.388ZM168.986 113.388C168.986 114.208 169.151 114.831 169.483 115.257C169.813 115.683 170.306 115.895 170.957 115.895C171.608 115.895 172.095 115.685 172.425 115.265C172.755 114.845 172.92 114.219 172.92 113.39C172.92 112.561 172.757 111.952 172.429 111.527C172.103 111.103 171.614 110.894 170.965 110.894C170.316 110.894 169.815 111.103 169.483 111.527C169.151 111.952 168.984 112.571 168.984 113.39L168.986 113.388Z" fill="#1E530A"/>
<path d="M115.922 8.54681C115.578 8.54681 115.23 8.5605 114.882 8.58591C111.475 3.46209 105.702 0.334229 99.503 0.334229C93.304 0.334229 87.5311 3.46404 84.1257 8.58591C83.7757 8.5605 83.4297 8.54681 83.0856 8.54681C75.1682 8.54681 68.7268 14.9902 68.7268 22.9115C68.7268 30.1369 74.0891 36.1326 81.0428 37.1276V61.4272C81.0428 63.4544 82.6868 65.0985 84.7141 65.0985H90.051C90.3051 59.7088 90.8564 50.3311 91.5739 43.8682C91.7224 42.529 91.0793 41.2232 89.9259 40.5233C88.1547 39.4501 86.97 37.5049 86.97 35.2822L87.8478 20.9351C87.881 20.3877 88.3346 19.9615 88.8819 19.9615C89.4743 19.9615 89.9474 20.4581 89.9181 21.0504L89.3472 32.557C89.3472 33.2041 89.8711 33.728 90.5182 33.728C91.1653 33.728 91.6892 33.2041 91.6892 32.557L91.9746 21.0543C91.9903 20.4464 92.4868 19.9615 93.0948 19.9615C93.7028 19.9615 94.1993 20.4464 94.2149 21.0543L94.5004 32.557C94.5004 33.2041 95.0243 33.728 95.6714 33.728C96.3184 33.728 96.8424 33.2041 96.8424 32.557L96.2715 21.0504C96.2422 20.4581 96.7133 19.9615 97.3076 19.9615C97.855 19.9615 98.3085 20.3877 98.3418 20.9351L99.2195 35.2822C99.2195 37.5049 98.0348 39.4501 96.2637 40.5233C95.1122 41.2212 94.4671 42.529 94.6157 43.8682C95.3332 50.3311 95.8844 59.7088 96.1386 65.0985H105.864C106.091 60.2953 106.554 52.329 107.158 46.0753H106.273C105.098 46.0753 104.146 45.1232 104.146 43.9483V33.7085C104.146 27.9298 106.036 22.3074 109.528 17.7036C109.692 17.4886 109.973 17.4006 110.23 17.4866C110.486 17.5726 110.658 17.8131 110.658 18.0829V46.0713C111.264 52.3251 111.725 60.2933 111.952 65.0985H114.294C116.321 65.0985 117.963 63.4564 117.963 61.4291V37.1276C124.917 36.1306 130.279 30.1369 130.279 22.9115C130.279 14.9922 123.838 8.54681 115.918 8.54681H115.922Z" fill="#1E530A"/>
</svg>
