<svg width="183" height="39" viewBox="0 0 183 39" fill="none" xmlns="http://www.w3.org/2000/svg">
<path d="M48.1761 15.9572L48.1074 9.70972H51.8783L51.7859 14.6747L54.9123 14.7103L58.0386 14.6747L57.9924 9.70972H61.7409L61.6484 15.9572L61.7409 22.2218H57.9924L58.0386 17.1116L54.9123 17.0759L51.7859 17.1116L51.8783 22.2218H48.1074L48.1761 15.9572Z" fill="#123704"/>
<path d="M64.7192 21.753C64.0218 21.259 63.6731 20.6092 63.6731 19.8035C63.6731 18.9978 63.9412 18.3678 64.4775 17.9174C65.0137 17.4657 65.7838 17.1473 66.7876 16.9598C67.7914 16.7736 69.0832 16.6798 70.6615 16.6798H71.4197V16.3905C71.4197 15.7407 71.2427 15.2441 70.8913 14.9006C70.5387 14.5572 69.9721 14.3855 69.1901 14.3855C68.638 14.3855 68.1824 14.4846 67.8218 14.684C67.4612 14.8822 67.2089 15.1291 67.0636 15.4237C66.9183 15.7182 66.8457 16.0352 66.8457 16.372L63.9941 15.849C64.0707 15.1635 64.3309 14.5559 64.776 14.0249C65.2198 13.4953 65.8406 13.0832 66.6383 12.7887C67.4348 12.4941 68.3633 12.3462 69.42 12.3462C71.2136 12.3462 72.5397 12.6896 73.3982 13.3751C74.2568 14.0606 74.686 15.0301 74.686 16.2822V19.6952C74.686 19.9963 74.7442 20.2103 74.8591 20.3358C74.974 20.4626 75.1774 20.5247 75.468 20.5247C75.575 20.5247 75.6899 20.5128 75.8127 20.489C75.9355 20.4652 76.057 20.4348 76.1812 20.3992L76.2274 20.3807L76.6184 22.1506C76.3265 22.247 76.0095 22.3183 75.6648 22.3672C75.32 22.4148 74.941 22.4398 74.5262 22.4398C73.7747 22.4398 73.1922 22.3038 72.7788 22.033C72.3654 21.7623 72.1197 21.3317 72.0431 20.7426C72.0272 20.6951 72.0206 20.6528 72.0206 20.6158V20.526C72.0206 20.4903 72.0246 20.4718 72.0325 20.4718C72.0405 20.4718 72.0444 20.4599 72.0444 20.4362H71.9982C71.6297 21.0741 71.071 21.5774 70.3194 21.9432C69.5679 22.3104 68.679 22.494 67.6527 22.494C66.3953 22.494 65.4179 22.247 64.7205 21.7543L64.7192 21.753ZM69.9615 20.2631C70.3987 20.065 70.7513 19.785 71.0195 19.4231C71.2876 19.0625 71.4223 18.6531 71.4223 18.1947V18.068H70.8702C69.9351 18.068 69.1835 18.1076 68.6169 18.1855C68.0503 18.2634 67.6316 18.4048 67.3634 18.6095C67.0953 18.8142 66.9606 19.1035 66.9606 19.4759C66.9606 19.8009 67.1059 20.0624 67.3978 20.2618C67.6884 20.4599 68.0873 20.5603 68.5931 20.5603C69.0686 20.5603 69.5243 20.4613 69.9615 20.2618V20.2631Z" fill="#123704"/>
<path d="M79.1016 17.8354V14.639H75.6292V12.5984H85.8839V14.639H82.4815V17.8354L82.504 22.2232H79.0778L79.1003 17.8354H79.1016Z" fill="#123704"/>
<path d="M88.1953 25.2465C87.7436 25.1923 87.3104 25.1171 86.8957 25.0206L87.494 23.0341C87.6631 23.0817 87.8889 23.1187 88.1729 23.1424C88.4569 23.1662 88.6907 23.1781 88.8742 23.1781C89.2428 23.1781 89.5558 23.1266 89.8173 23.0249C90.0775 22.9219 90.3007 22.7594 90.4843 22.5375C90.6679 22.3143 90.8594 22.0105 91.0589 21.6262L90.829 22.6009L86.0239 12.5984H89.6113L92.3704 19.0255H92.4167L94.946 12.5984H98.4184L94.3028 21.8784C93.9343 22.6973 93.5327 23.3525 93.0956 23.8464C92.6584 24.3404 92.1446 24.7102 91.5555 24.9572C90.9651 25.2042 90.2558 25.3271 89.429 25.3271C89.0605 25.3271 88.651 25.2993 88.1993 25.2452L88.1953 25.2465Z" fill="#123704"/>
<path d="M99.7022 18.3584L99.6335 12.5983H103.151L103.128 13.898H103.175C103.481 13.4529 103.961 13.0831 104.612 12.7872C105.263 12.4927 106.003 12.3447 106.831 12.3447C107.827 12.3447 108.689 12.5349 109.417 12.914C110.145 13.2931 110.705 13.8557 111.096 14.602C111.487 15.3483 111.682 16.2807 111.682 17.4008C111.682 18.5208 111.49 19.4415 111.107 20.1996C110.724 20.9577 110.168 21.5297 109.441 21.9153C108.713 22.301 107.842 22.4925 106.831 22.4925C106.003 22.4925 105.267 22.342 104.624 22.0408C103.98 21.7397 103.481 21.3606 103.128 20.9036H103.082L103.151 25.1104H99.6335L99.7022 18.3584ZM107.543 19.5326C107.972 19.0386 108.186 18.3293 108.186 17.4021C108.186 16.4749 107.968 15.7894 107.531 15.3073C107.094 14.8265 106.469 14.5848 105.656 14.5848C105.165 14.5848 104.729 14.6878 104.346 14.8913C103.963 15.096 103.659 15.4117 103.437 15.8396C103.216 16.2675 103.105 16.7932 103.105 17.4193C103.105 18.1048 103.227 18.6595 103.473 19.0809C103.719 19.5022 104.029 19.806 104.404 19.9922C104.779 20.1785 105.198 20.2723 105.658 20.2723C106.486 20.2723 107.113 20.0253 107.543 19.5326Z" fill="#123704"/>
<path d="M112.531 22.2587L113.13 20.0014C113.466 20.0489 113.743 20.074 113.958 20.074C114.248 20.074 114.49 20.0014 114.682 19.8574C114.873 19.7135 115.022 19.4123 115.129 18.9553C115.298 18.2091 115.432 17.0983 115.532 15.6242C115.631 14.1502 115.705 12.1782 115.75 9.71094H127.96L127.845 15.9584L127.96 22.223H124.189L124.258 15.9584L124.211 12.1307L121.751 12.0765L119.405 12.1307C119.359 13.8279 119.278 15.2967 119.163 16.5356C119.048 17.7758 118.914 18.7625 118.76 19.4968C118.484 20.6882 117.986 21.486 117.266 21.8888C116.545 22.2917 115.711 22.4938 114.761 22.4938C114.025 22.4938 113.282 22.4158 112.53 22.2587H112.531Z" fill="#123704"/>
<path d="M130.535 17.4009L130.467 12.5984H133.754L133.708 16.1738L133.73 18.5024H133.777L135.685 16.0655L138.422 12.5984H141.824L141.778 17.4009L141.824 22.2218H138.537L138.583 18.6292V16.3363H138.514L136.422 18.9357L133.847 22.2218H130.444L130.537 17.4009H130.535Z" fill="#123704"/>
<path d="M144.284 17.4009L144.191 12.5984H147.664L147.595 17.4009L147.664 22.2218H144.191L144.284 17.4009ZM147.295 16.2808L149.986 16.2993L152.652 16.2808V18.4298L149.986 18.3941L147.295 18.4298V16.2808ZM152.4 17.4009L152.308 12.5984H155.78L155.688 17.4009L155.78 22.2218H152.308L152.4 17.4009Z" fill="#123704"/>
<path d="M158.241 17.4009L158.172 12.5984H161.459L161.413 16.1738L161.436 18.5024H161.482L163.39 16.0655L166.126 12.5984H169.528L169.482 17.4009L169.528 22.2218H166.241L166.287 18.6292V16.3363H166.218L164.126 18.9357L161.551 22.2218H158.148L158.241 17.4009Z" fill="#123704"/>
<path d="M171.576 21.193C171.637 20.9883 171.691 20.7836 171.737 20.5788C171.783 20.3741 171.836 20.1932 171.898 20.0373C172.021 19.5314 172.265 19.1405 172.634 18.8631C173.001 18.5857 173.545 18.3691 174.266 18.2133L174.198 18.5738C173.385 18.4048 172.768 18.0799 172.347 17.5991C171.926 17.1183 171.714 16.5464 171.714 15.8834C171.714 14.7633 172.17 13.9365 173.083 13.4002C173.994 12.8653 175.332 12.5972 177.095 12.5972H182.568L182.475 17.3997L182.568 22.2206H179.073L179.119 19.2052H177.533C176.996 19.2052 176.525 19.3135 176.118 19.5301C175.711 19.7467 175.455 20.0783 175.348 20.5234C175.348 20.559 175.344 20.5841 175.336 20.596C175.328 20.6079 175.316 20.6317 175.302 20.6687C175.256 20.946 175.191 21.2432 175.106 21.5629C175.022 21.8825 174.949 22.1017 174.888 22.2219H171.279C171.355 22.0291 171.454 21.687 171.577 21.193H171.576ZM179.118 17.3653L179.095 14.729H177.118C176.413 14.729 175.895 14.8346 175.566 15.0446C175.236 15.256 175.072 15.5835 175.072 16.0286C175.072 16.4738 175.248 16.8238 175.6 17.0404C175.953 17.257 176.497 17.3653 177.233 17.3653H179.118Z" fill="#123704"/>
<path d="M48.1087 30.4753H49.448C50.0688 30.4753 50.5179 30.5665 50.794 30.7461C51.07 30.9271 51.2074 31.2137 51.2074 31.6033C51.2074 31.8675 51.14 32.0854 51.004 32.2598C50.8692 32.4354 50.6724 32.5451 50.4188 32.5913V32.6217C50.7358 32.6811 50.9683 32.7987 51.1162 32.9743C51.2642 33.15 51.3394 33.3877 51.3394 33.6889C51.3394 34.093 51.1981 34.41 50.9155 34.6399C50.6328 34.8697 50.2405 34.9833 49.736 34.9833H48.1074V30.4753H48.1087ZM48.8458 32.339H49.555C49.8641 32.339 50.0886 32.2888 50.23 32.1924C50.3713 32.0947 50.4426 31.9282 50.4426 31.6931C50.4426 31.4831 50.366 31.3286 50.2128 31.2335C50.0596 31.1384 49.8166 31.0922 49.4824 31.0922H48.8431V32.339H48.8458ZM48.8458 32.9373V34.3638H49.6303C49.9381 34.3638 50.1705 34.3044 50.3277 34.1868C50.4849 34.068 50.5628 33.883 50.5628 33.6281C50.5628 33.393 50.4836 33.2187 50.3224 33.1051C50.1626 32.9928 49.9196 32.9373 49.592 32.9373H48.8458Z" fill="#123704"/>
<path d="M55.4604 31.0421C55.0364 31.0421 54.7036 31.194 54.4605 31.4925C54.2175 31.7923 54.096 32.207 54.096 32.7354C54.096 33.2637 54.2135 33.7062 54.446 33.9901C54.6798 34.2741 55.0179 34.4154 55.4604 34.4154C55.6506 34.4154 55.8368 34.3956 56.0151 34.3573C56.1934 34.319 56.381 34.2715 56.5738 34.2107V34.8434C56.2198 34.9768 55.8196 35.0428 55.3706 35.0428C54.7102 35.0428 54.2043 34.8447 53.8503 34.4445C53.4963 34.0443 53.3193 33.4724 53.3193 32.7275C53.3193 32.2586 53.4052 31.8491 53.5769 31.4978C53.7486 31.1464 53.9969 30.8783 54.3218 30.6907C54.6454 30.5032 55.0285 30.4094 55.4657 30.4094C55.9253 30.4094 56.3519 30.5058 56.7416 30.6987L56.4761 31.3129C56.3242 31.2402 56.1644 31.1781 55.994 31.124C55.8249 31.0698 55.6466 31.0408 55.4591 31.0408L55.4604 31.0421Z" fill="#123704"/>
<path d="M61.3576 34.9847H58.8071V30.4768H61.3576V31.1002H59.5441V32.3273H61.244V32.9441H59.5441V34.36H61.3576V34.9861V34.9847Z" fill="#123704"/>
<path d="M70.5043 32.7247C70.5043 33.4578 70.3207 34.0284 69.9549 34.4352C69.5877 34.842 69.0673 35.0454 68.3963 35.0454C67.7253 35.0454 67.1931 34.8446 66.8272 34.4391C66.4626 34.0363 66.2791 33.4617 66.2791 32.7168C66.2791 31.9719 66.464 31.4013 66.8298 31.0011C67.197 30.6035 67.7201 30.4041 68.4003 30.4041C69.0805 30.4041 69.589 30.6061 69.9549 31.0103C70.3221 31.4158 70.5043 31.9864 70.5043 32.7234V32.7247ZM67.0636 32.7247C67.0636 33.2781 67.1746 33.6995 67.3991 33.9874C67.6223 34.2754 67.9552 34.418 68.395 34.418C68.8348 34.418 69.1637 34.2767 69.3869 33.9927C69.6101 33.7087 69.7211 33.2861 69.7211 32.726C69.7211 32.166 69.6115 31.7539 69.3896 31.4673C69.169 31.1807 68.8388 31.0394 68.4003 31.0394C67.9618 31.0394 67.6236 31.1807 67.3991 31.4673C67.1746 31.7539 67.0623 32.1726 67.0623 32.726L67.0636 32.7247Z" fill="#123704"/>
<path d="M74.2924 34.9847H73.5553V31.1095H72.2292V30.4768H75.6185V31.1095H74.2924V34.9847Z" fill="#123704"/>
<path d="M79.1307 34.9847H78.3937V31.1095H77.0676V30.4768H80.4568V31.1095H79.1307V34.9847Z" fill="#123704"/>
<path d="M84.9606 34.9847H82.4102V30.4768H84.9606V31.1002H83.1472V32.3273H84.8471V32.9441H83.1472V34.36H84.9606V34.9861V34.9847Z" fill="#123704"/>
<path d="M90.755 34.9847H90.0153V32.952H87.935V34.9847H87.198V30.4768H87.935V32.3207H90.0153V30.4768H90.755V34.9847Z" fill="#123704"/>
<path d="M96.6659 34.9847H95.7994L93.9423 32.6997V34.9847H93.2053V30.4768H93.9423V32.6588L95.769 30.4768H96.5774L94.7586 32.6548L96.6672 34.9847H96.6659Z" fill="#123704"/>
<path d="M98.5239 30.4754H99.1989V32.8186C99.1989 33.0629 99.1936 33.3112 99.1817 33.5609C99.1685 33.8092 99.1592 33.9796 99.154 34.0667H99.1817L101.485 30.4741H102.345V34.9821H101.667V32.6561C101.667 32.3008 101.686 31.8689 101.726 31.3617H101.702L99.3877 34.9821H98.5239V30.4741V30.4754Z" fill="#123704"/>
<path d="M107.695 30.4753H109.034C109.655 30.4753 110.104 30.5665 110.38 30.7461C110.656 30.9271 110.793 31.2137 110.793 31.6033C110.793 31.8675 110.726 32.0854 110.59 32.2598C110.455 32.4354 110.258 32.5451 110.005 32.5913V32.6217C110.322 32.6811 110.554 32.7987 110.702 32.9743C110.851 33.15 110.925 33.3877 110.925 33.6889C110.925 34.093 110.784 34.41 110.501 34.6399C110.219 34.8697 109.826 34.9833 109.322 34.9833H107.693V30.4753H107.695ZM108.432 32.339H109.141C109.45 32.339 109.675 32.2888 109.816 32.1924C109.957 32.0947 110.029 31.9282 110.029 31.6931C110.029 31.4831 109.952 31.3286 109.799 31.2335C109.646 31.1384 109.402 31.0922 109.068 31.0922H108.429V32.339H108.432ZM108.432 32.9373V34.3638H109.216C109.524 34.3638 109.756 34.3044 109.914 34.1868C110.071 34.068 110.149 33.883 110.149 33.6281C110.149 33.393 110.07 33.2187 109.908 33.1051C109.749 32.9928 109.506 32.9373 109.178 32.9373H108.432Z" fill="#123704"/>
<path d="M116.587 34.9847H115.721L113.864 32.6997V34.9847H113.127V30.4768H113.864V32.6588L115.691 30.4768H116.499L114.68 32.6548L116.589 34.9847H116.587Z" fill="#123704"/>
<path d="M121.876 30.4754L120.454 33.6824C120.279 34.0747 120.12 34.3586 119.973 34.5356C119.826 34.7113 119.657 34.8407 119.466 34.9226C119.273 35.0058 119.041 35.0455 118.767 35.0455C118.529 35.0455 118.307 35.0151 118.104 34.953V34.2899C118.305 34.3705 118.516 34.4101 118.735 34.4101C118.923 34.4101 119.08 34.3639 119.206 34.2728C119.332 34.1803 119.447 34.0152 119.55 33.7775L117.887 30.4741H118.684L119.785 32.7354C119.883 32.948 119.944 33.092 119.968 33.1633H119.998C120.01 33.1105 120.04 33.0246 120.091 32.9084L121.105 30.4754H121.875H121.876Z" fill="#123704"/>
<path d="M125.653 31.0421C125.229 31.0421 124.896 31.194 124.653 31.4925C124.41 31.7923 124.288 32.207 124.288 32.7354C124.288 33.2637 124.406 33.7062 124.638 33.9901C124.872 34.2741 125.21 34.4154 125.653 34.4154C125.843 34.4154 126.029 34.3956 126.207 34.3573C126.386 34.319 126.573 34.2715 126.766 34.2107V34.8434C126.412 34.9768 126.012 35.0428 125.563 35.0428C124.902 35.0428 124.396 34.8447 124.042 34.4445C123.688 34.0443 123.511 33.4724 123.511 32.7275C123.511 32.2586 123.597 31.8491 123.769 31.4978C123.941 31.1464 124.189 30.8783 124.514 30.6907C124.838 30.5032 125.221 30.4094 125.658 30.4094C126.117 30.4094 126.544 30.5058 126.934 30.6987L126.668 31.3129C126.516 31.2402 126.357 31.1781 126.186 31.124C126.017 31.0698 125.839 31.0408 125.651 31.0408L125.653 31.0421Z" fill="#123704"/>
<path d="M132.556 34.9847H131.816V32.952H129.736V34.9847H128.999V30.4768H129.736V32.3207H131.816V30.4768H132.556V34.9847Z" fill="#123704"/>
<path d="M139.011 32.7247C139.011 33.4578 138.827 34.0284 138.461 34.4352C138.094 34.842 137.574 35.0454 136.903 35.0454C136.232 35.0454 135.7 34.8446 135.334 34.4391C134.969 34.0363 134.786 33.4617 134.786 32.7168C134.786 31.9719 134.971 31.4013 135.336 31.0011C135.704 30.6035 136.227 30.4041 136.907 30.4041C137.587 30.4041 138.096 30.6061 138.461 31.0103C138.829 31.4158 139.011 31.9864 139.011 32.7234V32.7247ZM135.57 32.7247C135.57 33.2781 135.681 33.6995 135.906 33.9874C136.129 34.2754 136.462 34.418 136.902 34.418C137.341 34.418 137.67 34.2767 137.894 33.9927C138.117 33.7087 138.228 33.2861 138.228 32.726C138.228 32.166 138.118 31.7539 137.896 31.4673C137.676 31.1807 137.345 31.0394 136.907 31.0394C136.468 31.0394 136.13 31.1807 135.906 31.4673C135.681 31.7539 135.569 32.1726 135.569 32.726L135.57 32.7247Z" fill="#123704"/>
<path d="M143.919 30.4753V31.108H141.979V34.9833H141.242V30.4753H143.919Z" fill="#123704"/>
<path d="M149.92 32.7247C149.92 33.4578 149.736 34.0284 149.37 34.4352C149.003 34.842 148.483 35.0454 147.812 35.0454C147.141 35.0454 146.608 34.8446 146.242 34.4391C145.878 34.0363 145.694 33.4617 145.694 32.7168C145.694 31.9719 145.879 31.4013 146.245 31.0011C146.612 30.6035 147.135 30.4041 147.816 30.4041C148.496 30.4041 149.004 30.6061 149.37 31.0103C149.737 31.4158 149.92 31.9864 149.92 32.7234V32.7247ZM146.479 32.7247C146.479 33.2781 146.59 33.6995 146.814 33.9874C147.038 34.2754 147.37 34.418 147.81 34.418C148.25 34.418 148.579 34.2767 148.802 33.9927C149.025 33.7087 149.136 33.2861 149.136 32.726C149.136 32.166 149.027 31.7539 148.805 31.4673C148.584 31.1807 148.254 31.0394 147.816 31.0394C147.377 31.0394 147.039 31.1807 146.814 31.4673C146.59 31.7539 146.478 32.1726 146.478 32.726L146.479 32.7247Z" fill="#123704"/>
<path d="M28.4263 4.92507C28.2191 4.92507 28.0095 4.93328 27.7999 4.94852C25.7476 1.87577 22.2705 0 18.5368 0C14.8031 0 11.326 1.87694 9.27488 4.94852C9.06411 4.93328 8.8557 4.92507 8.64847 4.92507C3.87974 4.92507 0 8.78916 0 13.5396C0 17.8726 3.22978 21.4682 7.41802 22.0649V36.6373C7.41802 37.8531 8.40827 38.839 9.6293 38.839H12.8438C12.9968 35.6068 13.3289 29.983 13.761 26.1072C13.8505 25.3042 13.4631 24.521 12.7684 24.1013C11.7016 23.4577 10.9881 22.2912 10.9881 20.9582L11.5168 12.3543C11.5368 12.026 11.81 11.7705 12.1396 11.7705C12.4964 11.7705 12.7814 12.0682 12.7637 12.4235L12.4199 19.324C12.4199 19.712 12.7354 20.0262 13.1252 20.0262C13.5149 20.0262 13.8305 19.712 13.8305 19.324L14.0024 12.4258C14.0118 12.0612 14.3109 11.7705 14.6771 11.7705C15.0433 11.7705 15.3423 12.0612 15.3518 12.4258L15.5237 19.324C15.5237 19.712 15.8392 20.0262 16.229 20.0262C16.6187 20.0262 16.9343 19.712 16.9343 19.324L16.5905 12.4235C16.5728 12.0682 16.8566 11.7705 17.2145 11.7705C17.5442 11.7705 17.8174 12.026 17.8374 12.3543L18.3661 20.9582C18.3661 22.2912 17.6525 23.4577 16.5857 24.1013C15.8922 24.5199 15.5037 25.3042 15.5931 26.1072C16.0253 29.983 16.3573 35.6068 16.5104 38.839H22.3683C22.5049 35.9585 22.7839 31.1812 23.1478 27.4308H22.6144C21.9067 27.4308 21.3333 26.8599 21.3333 26.1553V20.0145C21.3333 16.549 22.4719 13.1773 24.5748 10.4164C24.6737 10.2874 24.8433 10.2347 24.9975 10.2863C25.1518 10.3378 25.2554 10.482 25.2554 10.6438V27.4285C25.6204 31.1788 25.8983 35.9574 26.0349 38.839H27.4455C28.6665 38.839 29.6556 37.8542 29.6556 36.6385V22.0649C33.8438 21.467 37.0736 17.8726 37.0736 13.5396C37.0736 8.79033 33.1939 4.92507 28.424 4.92507H28.4263Z" fill="#123704"/>
</svg>
