<svg width="427" height="91" viewBox="0 0 427 91" fill="none" xmlns="http://www.w3.org/2000/svg">
<path d="M112.677 37.3217L112.517 22.7098H121.336L121.12 34.3221L128.432 34.4055L135.744 34.3221L135.636 22.7098H144.403L144.187 37.3217L144.403 51.9737H135.636L135.744 40.0216L128.432 39.9382L121.12 40.0216L121.336 51.9737H112.517L112.677 37.3217Z" fill="#1E530A"/>
<path d="M151.369 50.8771C149.738 49.7218 148.923 48.2019 148.923 46.3175C148.923 44.433 149.55 42.9595 150.804 41.9061C152.058 40.8496 153.859 40.1051 156.207 39.6664C158.555 39.2308 161.576 39.0115 165.268 39.0115H167.041V38.335C167.041 36.8151 166.627 35.6535 165.805 34.8504C164.98 34.0472 163.655 33.6456 161.826 33.6456C160.535 33.6456 159.469 33.8773 158.626 34.3437C157.782 34.8071 157.192 35.3848 156.853 36.0737C156.513 36.7626 156.343 37.504 156.343 38.2917L149.673 37.0684C149.853 35.4651 150.461 34.0441 151.502 32.8022C152.54 31.5634 153.992 30.5996 155.858 29.9107C157.721 29.2218 159.892 28.8759 162.364 28.8759C166.559 28.8759 169.66 29.679 171.668 31.2823C173.676 32.8856 174.68 35.1531 174.68 38.0817V46.0641C174.68 46.7685 174.816 47.2689 175.085 47.5624C175.354 47.859 175.83 48.0042 176.509 48.0042C176.759 48.0042 177.028 47.9764 177.316 47.9207C177.603 47.8651 177.887 47.7941 178.177 47.7107L178.286 47.6674L179.2 51.807C178.517 52.0325 177.776 52.1993 176.97 52.3136C176.163 52.4248 175.277 52.4835 174.307 52.4835C172.549 52.4835 171.187 52.1653 170.22 51.532C169.253 50.8987 168.678 49.8917 168.499 48.5139C168.462 48.4027 168.446 48.3038 168.446 48.2173V48.0073C168.446 47.9238 168.456 47.8806 168.474 47.8806C168.493 47.8806 168.502 47.8528 168.502 47.7972H168.394C167.532 49.2893 166.225 50.4662 164.468 51.322C162.71 52.1808 160.631 52.6101 158.23 52.6101C155.29 52.6101 153.004 52.0325 151.372 50.8802L151.369 50.8771ZM163.63 47.3925C164.653 46.9291 165.478 46.2742 166.105 45.4278C166.732 44.5844 167.047 43.6268 167.047 42.5548V42.2583H165.756C163.569 42.2583 161.811 42.3509 160.486 42.5332C159.16 42.7154 158.181 43.046 157.554 43.5248C156.927 44.0036 156.612 44.6802 156.612 45.5513C156.612 46.3113 156.951 46.9229 157.634 47.3894C158.314 47.8528 159.247 48.0876 160.43 48.0876C161.542 48.0876 162.608 47.8559 163.63 47.3894V47.3925Z" fill="#1E530A"/>
<path d="M185.008 41.7148V34.2389H176.886V29.4661H200.871V34.2389H192.913V41.7148L192.965 51.9771H184.952L185.005 41.7148H185.008Z" fill="#1E530A"/>
<path d="M206.277 59.0482C205.22 58.9216 204.207 58.7455 203.237 58.52L204.636 53.8738C205.032 53.985 205.56 54.0715 206.224 54.1271C206.888 54.1828 207.435 54.2106 207.865 54.2106C208.726 54.2106 209.459 54.0901 210.07 53.8522C210.679 53.6112 211.201 53.2313 211.63 52.7123C212.06 52.1902 212.508 51.4797 212.974 50.5808L212.437 52.8606L201.198 29.4661H209.588L216.042 44.4981H216.15L222.066 29.4661H230.187L220.561 51.1708C219.699 53.0861 218.76 54.6183 217.738 55.7737C216.715 56.9291 215.513 57.794 214.136 58.3717C212.755 58.9494 211.096 59.2367 209.162 59.2367C208.3 59.2367 207.342 59.1718 206.286 59.0451L206.277 59.0482Z" fill="#1E530A"/>
<path d="M233.19 42.9379L233.029 29.466H241.256L241.203 32.5057H241.311C242.028 31.4647 243.149 30.5997 244.672 29.9077C246.195 29.2188 247.925 28.8728 249.862 28.8728C252.192 28.8728 254.209 29.3177 255.911 30.2043C257.613 31.0909 258.923 32.4069 259.837 34.1523C260.752 35.8977 261.209 38.0786 261.209 40.6983C261.209 43.3179 260.761 45.4711 259.865 47.2443C258.969 49.0175 257.669 50.3551 255.967 51.2572C254.264 52.1592 252.229 52.6071 249.862 52.6071C247.925 52.6071 246.205 52.255 244.7 51.5506C243.196 50.8463 242.028 49.9597 241.203 48.8908H241.095L241.256 58.7299H233.029L233.19 42.9379ZM251.527 45.6842C252.531 44.5289 253.032 42.87 253.032 40.7014C253.032 38.5327 252.522 36.9295 251.5 35.8019C250.477 34.6774 249.016 34.1121 247.116 34.1121C245.967 34.1121 244.947 34.3531 244.051 34.8288C243.156 35.3076 242.445 36.046 241.926 37.0469C241.407 38.0478 241.148 39.2772 241.148 40.7415C241.148 42.3448 241.435 43.6423 242.01 44.6277C242.584 45.6132 243.31 46.3237 244.187 46.7593C245.065 47.1949 246.044 47.4142 247.119 47.4142C249.056 47.4142 250.523 46.8365 251.527 45.6842Z" fill="#1E530A"/>
<path d="M263.195 52.0602L264.595 46.7807C265.382 46.8919 266.028 46.9506 266.532 46.9506C267.211 46.9506 267.777 46.7807 268.224 46.444C268.672 46.1073 269.021 45.4029 269.272 44.3341C269.667 42.5887 269.979 39.9907 270.214 36.5431C270.446 33.0956 270.619 28.4834 270.724 22.7128H299.28L299.011 37.3247L299.28 51.9767H290.46L290.621 37.3247L290.513 28.3722L284.758 28.2455L279.271 28.3722C279.163 32.3418 278.975 35.777 278.706 38.6747C278.437 41.5754 278.122 43.883 277.764 45.6006C277.118 48.3871 275.954 50.253 274.27 51.1952C272.583 52.1374 270.631 52.61 268.41 52.61C266.689 52.61 264.95 52.4278 263.192 52.0602H263.195Z" fill="#1E530A"/>
<path d="M305.304 40.6984L305.143 29.4661H312.832L312.724 37.8285L312.777 43.2748H312.885L317.349 37.5752L323.75 29.4661H331.707L331.599 40.6984L331.707 51.974H324.018L324.127 43.5714V38.2085H323.966L319.073 44.288L313.049 51.974H305.091L305.307 40.6984H305.304Z" fill="#1E530A"/>
<path d="M337.459 40.6984L337.243 29.4661H345.365L345.204 40.6984L345.365 51.974H337.243L337.459 40.6984ZM344.503 38.0788L350.796 38.122L357.033 38.0788V43.1049L350.796 43.0215L344.503 43.1049V38.0788ZM356.443 40.6984L356.226 29.4661H364.348L364.132 40.6984L364.348 51.974H356.226L356.443 40.6984Z" fill="#1E530A"/>
<path d="M370.103 40.6984L369.943 29.4661H377.632L377.523 37.8285L377.576 43.2748H377.684L382.148 37.5752L388.546 29.4661H396.503L396.395 40.6984L396.503 51.974H388.814L388.923 43.5714V38.2085H388.762L383.869 44.288L377.845 51.974H369.887L370.103 40.6984Z" fill="#1E530A"/>
<path d="M401.292 49.5676C401.434 49.0887 401.56 48.6099 401.669 48.1311C401.777 47.6523 401.9 47.229 402.045 46.8645C402.333 45.6813 402.904 44.7669 403.766 44.1182C404.625 43.4695 405.898 42.9629 407.584 42.5983L407.424 43.4417C405.524 43.0463 404.081 42.2863 403.096 41.1618C402.11 40.0374 401.616 38.6998 401.616 37.149C401.616 34.5293 402.682 32.5955 404.816 31.3413C406.948 30.0902 410.077 29.4631 414.201 29.4631H427L426.784 40.6954L427 51.971H418.826L418.934 44.9183H415.224C413.97 44.9183 412.867 45.1716 411.915 45.6783C410.964 46.1849 410.365 46.9603 410.114 48.0013C410.114 48.0847 410.105 48.1434 410.087 48.1712C410.068 48.199 410.04 48.2547 410.006 48.3412C409.898 48.9899 409.747 49.6849 409.549 50.4325C409.351 51.1801 409.181 51.6929 409.039 51.974H400.597C400.776 51.523 401.007 50.7229 401.295 49.5676H401.292ZM418.931 40.6151L418.878 34.449H414.254C412.604 34.449 411.393 34.6962 410.624 35.1873C409.852 35.6816 409.469 36.4477 409.469 37.4888C409.469 38.5299 409.88 39.3485 410.704 39.8551C411.529 40.3617 412.802 40.6151 414.523 40.6151H418.931Z" fill="#1E530A"/>
<path d="M112.52 71.2777H115.652C117.104 71.2777 118.154 71.4909 118.8 71.911C119.446 72.3342 119.767 73.0046 119.767 73.9159C119.767 74.5337 119.609 75.0434 119.291 75.4512C118.976 75.8621 118.516 76.1185 117.923 76.2266V76.2977C118.664 76.4367 119.208 76.7116 119.554 77.1225C119.9 77.5333 120.076 78.0894 120.076 78.7937C120.076 79.739 119.745 80.4804 119.084 81.0179C118.423 81.5555 117.506 81.8211 116.326 81.8211H112.517V71.2777H112.52ZM114.243 75.6366H115.902C116.625 75.6366 117.15 75.5192 117.481 75.2937C117.811 75.0651 117.978 74.6758 117.978 74.1259C117.978 73.6348 117.799 73.2733 117.441 73.0509C117.082 72.8285 116.514 72.7204 115.732 72.7204H114.237V75.6366H114.243ZM114.243 77.036V80.3723H116.078C116.798 80.3723 117.342 80.2333 117.709 79.9583C118.077 79.6803 118.259 79.2478 118.259 78.6516C118.259 78.1017 118.074 77.694 117.697 77.4283C117.323 77.1657 116.755 77.036 115.989 77.036H114.243Z" fill="#1E530A"/>
<path d="M129.714 72.6029C128.723 72.6029 127.944 72.9582 127.376 73.6564C126.807 74.3576 126.523 75.3276 126.523 76.5633C126.523 77.799 126.798 78.8339 127.342 79.498C127.888 80.1622 128.679 80.4928 129.714 80.4928C130.159 80.4928 130.595 80.4464 131.012 80.3568C131.429 80.2672 131.867 80.156 132.318 80.0139V81.4937C131.49 81.8057 130.554 81.9601 129.504 81.9601C127.959 81.9601 126.776 81.4968 125.948 80.5607C125.121 79.6247 124.707 78.2871 124.707 76.5448C124.707 75.4481 124.907 74.4905 125.309 73.6687C125.711 72.847 126.291 72.2199 127.051 71.7812C127.808 71.3425 128.704 71.1232 129.726 71.1232C130.802 71.1232 131.799 71.3487 132.711 71.7998L132.09 73.2362C131.734 73.0663 131.361 72.9211 130.962 72.7945C130.567 72.6678 130.15 72.5999 129.711 72.5999L129.714 72.6029Z" fill="#1E530A"/>
<path d="M143.507 81.8244H137.542V71.281H143.507V72.7391H139.266V75.609H143.242V77.0516H139.266V80.3632H143.507V81.8275V81.8244Z" fill="#1E530A"/>
<path d="M164.9 76.5383C164.9 78.2529 164.471 79.5874 163.615 80.5389C162.756 81.4903 161.539 81.9661 159.97 81.9661C158.4 81.9661 157.155 81.4965 156.3 80.5481C155.447 79.6059 155.018 78.2621 155.018 76.5198C155.018 74.7775 155.45 73.443 156.306 72.5069C157.165 71.5771 158.388 71.1106 159.979 71.1106C161.57 71.1106 162.759 71.5833 163.615 72.5286C164.474 73.477 164.9 74.8115 164.9 76.5353V76.5383ZM156.853 76.5383C156.853 77.8327 157.112 78.8182 157.637 79.4916C158.159 80.1651 158.938 80.4987 159.967 80.4987C160.995 80.4987 161.764 80.1681 162.287 79.504C162.809 78.8398 163.068 77.8513 163.068 76.5414C163.068 75.2316 162.812 74.2678 162.293 73.5974C161.777 72.9271 161.005 72.5965 159.979 72.5965C158.953 72.5965 158.162 72.9271 157.637 73.5974C157.112 74.2678 156.85 75.2471 156.85 76.5414L156.853 76.5383Z" fill="#1E530A"/>
<path d="M173.76 81.8244H172.036V72.7607H168.935V71.281H176.861V72.7607H173.76V81.8244Z" fill="#1E530A"/>
<path d="M185.076 81.8244H183.352V72.7607H180.25V71.281H188.177V72.7607H185.076V81.8244Z" fill="#1E530A"/>
<path d="M198.711 81.8244H192.746V71.281H198.711V72.7391H194.47V75.609H198.446V77.0516H194.47V80.3632H198.711V81.8275V81.8244Z" fill="#1E530A"/>
<path d="M212.264 81.8244H210.534V77.0702H205.668V81.8244H203.944V71.281H205.668V75.5935H210.534V71.281H212.264V81.8244Z" fill="#1E530A"/>
<path d="M226.088 81.8244H224.061L219.718 76.4801V81.8244H217.994V71.281H219.718V76.3844L223.99 71.281H225.881L221.627 76.3751L226.091 81.8244H226.088Z" fill="#1E530A"/>
<path d="M230.434 71.2778H232.013V76.758C232.013 77.3295 232 77.9103 231.973 78.4941C231.942 79.0749 231.92 79.4734 231.908 79.6773H231.973L237.36 71.2747H239.371V81.8181H237.787V76.378C237.787 75.547 237.83 74.5369 237.922 73.3506H237.867L232.455 81.8181H230.434V71.2747V71.2778Z" fill="#1E530A"/>
<path d="M251.883 71.2777H255.015C256.467 71.2777 257.517 71.4909 258.163 71.911C258.809 72.3342 259.13 73.0046 259.13 73.9159C259.13 74.5337 258.972 75.0434 258.654 75.4512C258.339 75.8621 257.879 76.1185 257.286 76.2266V76.2977C258.027 76.4367 258.571 76.7116 258.917 77.1225C259.266 77.5333 259.439 78.0894 259.439 78.7937C259.439 79.739 259.108 80.4804 258.447 81.0179C257.786 81.5555 256.869 81.8211 255.689 81.8211H251.88V71.2777H251.883ZM253.606 75.6366H255.265C255.988 75.6366 256.513 75.5192 256.844 75.2937C257.174 75.0651 257.341 74.6758 257.341 74.1259C257.341 73.6348 257.162 73.2733 256.804 73.0509C256.445 72.8285 255.877 72.7204 255.095 72.7204H253.6V75.6366H253.606ZM253.606 77.036V80.3723H255.441C256.161 80.3723 256.705 80.2333 257.072 79.9583C257.44 79.6803 257.622 79.2478 257.622 78.6516C257.622 78.1017 257.437 77.694 257.06 77.4283C256.686 77.1657 256.118 77.036 255.352 77.036H253.606Z" fill="#1E530A"/>
<path d="M272.682 81.8244H270.656L266.312 76.4801V81.8244H264.588V71.281H266.312V76.3844L270.585 71.281H272.475L268.221 76.3751L272.685 81.8244H272.682Z" fill="#1E530A"/>
<path d="M285.051 71.2778L281.724 78.7783C281.317 79.6958 280.943 80.36 280.6 80.774C280.257 81.1848 279.862 81.4876 279.414 81.6791C278.963 81.8737 278.419 81.9664 277.779 81.9664C277.223 81.9664 276.704 81.8953 276.229 81.7502V80.1994C276.698 80.3878 277.192 80.4805 277.705 80.4805C278.144 80.4805 278.512 80.3724 278.805 80.1592C279.102 79.943 279.37 79.5568 279.611 79.0008L275.722 71.2747H277.585L280.161 76.5634C280.39 77.0608 280.532 77.3975 280.587 77.5643H280.659C280.686 77.4407 280.757 77.2399 280.875 76.9681L283.247 71.2778H285.048H285.051Z" fill="#1E530A"/>
<path d="M293.883 72.6029C292.892 72.6029 292.113 72.9582 291.545 73.6564C290.976 74.3576 290.692 75.3276 290.692 76.5633C290.692 77.799 290.967 78.8339 291.511 79.498C292.058 80.1622 292.848 80.4928 293.883 80.4928C294.328 80.4928 294.764 80.4464 295.181 80.3568C295.598 80.2672 296.036 80.156 296.488 80.0139V81.4937C295.66 81.8057 294.724 81.9601 293.673 81.9601C292.129 81.9601 290.946 81.4968 290.118 80.5607C289.29 79.6247 288.876 78.2871 288.876 76.5448C288.876 75.4481 289.077 74.4905 289.478 73.6687C289.88 72.847 290.46 72.2199 291.22 71.7812C291.977 71.3425 292.873 71.1232 293.896 71.1232C294.971 71.1232 295.969 71.3487 296.88 71.7998L296.259 73.2362C295.904 73.0663 295.53 72.9211 295.131 72.7945C294.736 72.6678 294.319 72.5999 293.88 72.5999L293.883 72.6029Z" fill="#1E530A"/>
<path d="M310.031 81.8244H308.301V77.0702H303.435V81.8244H301.711V71.281H303.435V75.5935H308.301V71.281H310.031V81.8244Z" fill="#1E530A"/>
<path d="M325.127 76.5383C325.127 78.2529 324.698 79.5874 323.842 80.5389C322.984 81.4903 321.766 81.9661 320.197 81.9661C318.628 81.9661 317.383 81.4965 316.527 80.5481C315.675 79.6059 315.245 78.2621 315.245 76.5198C315.245 74.7775 315.678 73.443 316.533 72.5069C317.392 71.5771 318.615 71.1106 320.206 71.1106C321.797 71.1106 322.987 71.5833 323.842 72.5286C324.701 73.477 325.127 74.8115 325.127 76.5353V76.5383ZM317.08 76.5383C317.08 77.8327 317.34 78.8182 317.865 79.4916C318.387 80.1651 319.165 80.4987 320.194 80.4987C321.223 80.4987 321.992 80.1681 322.514 79.504C323.036 78.8398 323.296 77.8513 323.296 76.5414C323.296 75.2316 323.039 74.2678 322.52 73.5974C322.004 72.9271 321.232 72.5965 320.206 72.5965C319.181 72.5965 318.39 72.9271 317.865 73.5974C317.34 74.2678 317.077 75.2471 317.077 76.5414L317.08 76.5383Z" fill="#1E530A"/>
<path d="M336.607 71.2777V72.7574H332.069V81.8211H330.345V71.2777H336.607Z" fill="#1E530A"/>
<path d="M350.641 76.5383C350.641 78.2529 350.212 79.5874 349.356 80.5389C348.497 81.4903 347.28 81.9661 345.711 81.9661C344.141 81.9661 342.897 81.4965 342.041 80.5481C341.188 79.6059 340.759 78.2621 340.759 76.5198C340.759 74.7775 341.191 73.443 342.047 72.5069C342.906 71.5771 344.129 71.1106 345.72 71.1106C347.311 71.1106 348.5 71.5833 349.356 72.5286C350.215 73.477 350.641 74.8115 350.641 76.5353V76.5383ZM342.594 76.5383C342.594 77.8327 342.853 78.8182 343.378 79.4916C343.9 80.1651 344.679 80.4987 345.708 80.4987C346.736 80.4987 347.506 80.1681 348.028 79.504C348.55 78.8398 348.809 77.8513 348.809 76.5414C348.809 75.2316 348.553 74.2678 348.034 73.5974C347.518 72.9271 346.746 72.5965 345.72 72.5965C344.694 72.5965 343.904 72.9271 343.378 73.5974C342.853 74.2678 342.591 75.2471 342.591 76.5414L342.594 76.5383Z" fill="#1E530A"/>
<path d="M66.4852 11.5191C66.0005 11.5191 65.5103 11.5382 65.0201 11.5739C60.22 4.38716 52.0877 0 43.355 0C34.6223 0 26.49 4.38991 21.6926 11.5739C21.1997 11.5382 20.7122 11.5191 20.2276 11.5191C9.07417 11.5191 0 20.5566 0 31.6671C0 41.8015 7.55401 50.2111 17.3497 51.6068V85.6896C17.3497 88.533 19.6658 90.839 22.5216 90.839H30.0398C30.3978 83.2794 31.1744 70.1261 32.1851 61.0611C32.3944 59.1829 31.4883 57.3512 29.8635 56.3696C27.3685 54.8643 25.6996 52.136 25.6996 49.0184L26.9361 28.895C26.9829 28.1272 27.6218 27.5295 28.3929 27.5295C29.2274 27.5295 29.8938 28.2259 29.8525 29.0568L29.0484 45.196C29.0484 46.1036 29.7864 46.8385 30.698 46.8385C31.6095 46.8385 32.3476 46.1036 32.3476 45.196L32.7496 29.0622C32.7717 28.2095 33.4712 27.5295 34.3276 27.5295C35.1841 27.5295 35.8836 28.2095 35.9056 29.0622L36.3077 45.196C36.3077 46.1036 37.0457 46.8385 37.9573 46.8385C38.8688 46.8385 39.6069 46.1036 39.6069 45.196L38.8028 29.0568C38.7614 28.2259 39.4251 27.5295 40.2623 27.5295C41.0334 27.5295 41.6723 28.1272 41.7191 28.895L42.9557 49.0184C42.9557 52.136 41.2868 54.8643 38.7917 56.3696C37.1697 57.3485 36.2609 59.1829 36.4702 61.0611C37.4809 70.1261 38.2575 83.2794 38.6155 90.839H52.3162C52.6357 84.102 53.2884 72.9284 54.1393 64.1568H52.8918C51.2367 64.1568 49.8955 62.8215 49.8955 61.1736V46.8111C49.8955 38.7058 52.5586 30.8198 57.4771 24.3625C57.7084 24.0609 58.105 23.9375 58.4657 24.0581C58.8265 24.1788 59.0688 24.516 59.0688 24.8944V64.1513C59.9226 72.9229 60.5725 84.0992 60.8919 90.839H64.1911C67.047 90.839 69.3603 88.5358 69.3603 85.6923V51.6068C79.156 50.2084 86.71 41.8015 86.71 31.6671C86.71 20.5594 77.6358 11.5191 66.4796 11.5191H66.4852Z" fill="#1E530A"/>
</svg>
